<svg width="12" height="24" viewBox="0 0 12 24" fill="none" xmlns="http://www.w3.org/2000/svg">
<g clip-path="url(#clip0_341_9645)">
<path d="M12.462 0.173001V3.981H10.197C9.89675 3.94263 9.59178 3.96929 9.30277 4.05919C9.01376 4.14908 8.74747 4.3001 8.52198 4.502L8.52398 4.5C8.19983 4.95473 8.04682 5.50939 8.09198 6.066V6.058V8.784H12.321L11.761 13.054H8.09798V24H3.68098V13.053H0.000976562V8.784H3.68098V5.639C3.63314 4.8794 3.74176 4.11806 4.00012 3.40215C4.25849 2.68624 4.66108 2.03099 5.18298 1.477L5.17998 1.48C5.71266 0.975257 6.34232 0.583984 7.03077 0.329919C7.71922 0.0758538 8.45211 -0.0357081 9.18498 0.00200075H9.17198C10.3103 -0.0167758 11.4484 0.0450454 12.578 0.187001L12.461 0.175001L12.462 0.173001Z" fill="white"/>
</g>
<defs>
<clipPath id="clip0_341_9645">
<rect width="12" height="24" fill="white"/>
</clipPath>
</defs>
</svg>
