<svg width="24" height="24" viewBox="0 0 24 24" fill="none" xmlns="http://www.w3.org/2000/svg">
<path d="M16.2 0H7.8C4.6 0 2 2.6 2 5.8V14.2C2 15.7383 2.61107 17.2135 3.69878 18.3012C4.78649 19.3889 6.26174 20 7.8 20H16.2C19.4 20 22 17.4 22 14.2V5.8C22 4.26174 21.3889 2.78649 20.3012 1.69878C19.2135 0.61107 17.7383 0 16.2 0ZM16.4 2C17.3548 2 18.2705 2.37928 18.9456 3.05442C19.6207 3.72955 20 4.64522 20 5.6V14.4C20 16.39 18.39 18 16.4 18H7.6C6.64522 18 5.72955 17.6207 5.05441 16.9456C4.37928 16.2705 4 15.3548 4 14.4V5.6C4 3.61 5.61 2 7.6 2H16.4ZM6.75 3.5C6.41848 3.5 6.10054 3.6317 5.86612 3.86612C5.63169 4.10054 5.5 4.41848 5.5 4.75C5.5 5.08152 5.63169 5.39946 5.86612 5.63388C6.10054 5.8683 6.41848 6 6.75 6C7.08152 6 7.39946 5.8683 7.63388 5.63388C7.86831 5.39946 8 5.08152 8 4.75C8 4.41848 7.86831 4.10054 7.63388 3.86612C7.39946 3.6317 7.08152 3.5 6.75 3.5ZM12 5C10.6739 5 9.40215 5.52678 8.46447 6.46447C7.52678 7.40215 7 8.67392 7 10C7 11.3261 7.52678 12.5979 8.46447 13.5355C9.40215 14.4732 10.6739 15 12 15C13.3261 15 14.5979 14.4732 15.5355 13.5355C16.4732 12.5979 17 11.3261 17 10C17 8.67392 16.4732 7.40215 15.5355 6.46447C14.5979 5.52678 13.3261 5 12 5ZM12 7C12.7956 7 13.5587 7.31607 14.1213 7.87868C14.6839 8.44129 15 9.20435 15 10C15 10.7956 14.6839 11.5587 14.1213 12.1213C13.5587 12.6839 12.7956 13 12 13C11.2044 13 10.4413 12.6839 9.87868 12.1213C9.31607 11.5587 9 10.7956 9 10C9 9.20435 9.31607 8.44129 9.87868 7.87868C10.4413 7.31607 11.2044 7 12 7Z" fill="white"/>
</svg>
