<svg width="770" height="294" viewBox="0 0 770 294" fill="none" xmlns="http://www.w3.org/2000/svg">
<g clip-path="url(#clip0_1_8)">
<path d="M210.874 172.536C173.83 192.8 164.569 227.032 159.289 246.508C156.727 255.912 155.348 261.578 151.683 263.427C150.96 263.785 150.165 263.973 149.358 263.978C148.686 263.972 148.019 263.852 147.387 263.624C146.339 263.262 145.345 262.759 144.432 262.129C143.721 263.414 142.752 264.538 141.585 265.432C140.419 266.326 139.08 266.97 137.653 267.323C137.168 267.363 136.68 267.363 136.195 267.323C135.368 267.318 134.546 267.199 133.752 266.969C133.032 266.718 132.355 266.36 131.742 265.906C130.494 267.107 128.825 267.771 127.092 267.756H125.91C124.547 267.5 123.264 266.924 122.168 266.075C121.071 265.227 120.193 264.131 119.604 262.877C117.261 257.942 115.921 252.593 115.664 247.138C113.746 246.889 111.969 246.002 110.619 244.62C105.181 239.229 103.408 226.205 105.063 204.801C105.041 204.71 105.041 204.616 105.063 204.525C105.363 200.817 105.929 197.135 106.757 193.508L105.614 192.721C103.975 191.236 102.764 189.34 102.106 187.23C101.448 185.12 101.366 182.872 101.871 180.72C105.142 162.267 125.003 159.079 125.161 159.04H125.634C130.368 154.266 135.661 150.079 141.397 146.567L143.525 145.347C130.128 139.308 117.635 131.443 106.403 121.975C104.077 122.762 101.949 123.628 99.8608 124.533C90.8169 128.176 82.6963 133.779 76.0855 140.937C69.4748 148.096 64.539 156.631 61.6347 165.926C60.0135 170.809 58.9816 175.868 58.5608 180.996C60.8859 183.12 63.2504 185.245 65.6937 187.37C66.587 188.288 67.454 189.232 68.2947 190.203L69.9893 191.501C70.7319 193.019 71.6873 194.423 72.8267 195.672C74.4769 197.5 76.2547 199.21 78.1468 200.787C100.531 219.634 92.1367 226.52 104.314 251.938C105.457 253.63 106.678 255.283 107.9 256.896C109.082 258.391 110.304 259.926 111.565 261.421L112.156 262.09C113.378 263.506 114.678 264.883 116.097 266.26L116.767 266.89C118.186 268.267 119.644 269.684 121.181 270.825C144.51 290.852 174.146 288.806 181.712 287.901H182.815C183.235 287.939 183.657 287.939 184.076 287.901C184.324 287.648 184.515 287.345 184.637 287.013C184.759 286.68 184.81 286.326 184.786 285.973C185.117 282.881 186.026 279.878 187.466 277.12C186.546 270.062 184.868 263.123 182.461 256.424C182.067 255.243 181.633 254.181 181.2 253.158C181.2 252.764 180.924 252.489 180.806 252.135L179.939 250.128C179.505 249.145 179.032 248.279 178.638 247.413C177.456 245.171 175.958 243.715 174.697 243.715C173.436 243.715 170.756 246.862 170.244 252.725C169.766 258.252 169.977 263.816 170.875 269.29H168.274H167.998C167.647 269.368 167.284 269.368 166.934 269.29C164.265 268.661 161.458 269.04 159.052 270.353C158.671 270.617 158.216 270.755 157.752 270.746C157.376 270.744 157.008 270.649 156.678 270.471C156.348 270.292 156.067 270.035 155.86 269.723C155.685 269.475 155.561 269.194 155.498 268.897C155.434 268.599 155.432 268.292 155.491 267.994C155.55 267.696 155.669 267.413 155.841 267.163C156.013 266.912 156.234 266.699 156.491 266.536C159.235 265.008 162.403 264.414 165.515 264.844C165.165 260.799 165.165 256.731 165.515 252.686C166.264 244.816 169.85 239.505 174.579 239.505H175.722C175.131 236.16 174.815 233.445 174.658 231.832C173.651 226.509 174.799 221.005 177.85 216.526C178.475 215.813 179.244 215.242 180.107 214.848C180.97 214.455 181.906 214.249 182.855 214.244C183.616 214.261 184.372 214.38 185.101 214.598C185.101 214.047 184.865 213.496 184.786 213.063C183.209 205.194 183.84 199.095 186.599 195.711C187.233 194.91 188.041 194.263 188.963 193.82C189.885 193.377 190.896 193.149 191.919 193.154C193.817 193.376 195.646 194 197.284 194.983C198.922 195.967 200.33 197.289 201.416 198.859C200.903 196.227 200.917 193.518 201.459 190.891C202 188.264 203.057 185.77 204.569 183.553C205.187 182.83 205.954 182.248 206.817 181.847C207.681 181.446 208.621 181.237 209.574 181.232C211.702 181.232 215.012 182.294 218.559 187.331C219.623 188.865 220.726 190.557 221.908 192.485C224.409 193.227 227.034 193.46 229.627 193.169C232.22 192.879 234.728 192.071 237.002 190.793C237.955 190.255 238.769 189.501 239.378 188.592C239.987 187.684 240.374 186.645 240.509 185.56C240.076 183.199 226.204 177.061 210.874 172.536Z" fill="#CCB767"/>
<path d="M187.702 279.363C186.483 268.43 183.405 257.784 178.599 247.885C177.416 245.643 175.919 244.187 174.658 244.187C173.397 244.187 170.717 247.335 170.205 253.197C169.726 258.724 169.938 264.288 170.835 269.762H168.234H167.958C166.185 280.071 157.633 279.363 157.633 279.363C150.422 278.733 143.683 274.051 137.575 267.165C137.089 267.206 136.602 267.206 136.116 267.165C135.29 267.161 134.467 267.042 133.673 266.811C132.953 266.56 132.276 266.202 131.663 265.749C130.415 266.949 128.746 267.613 127.013 267.598H125.831C124.468 267.342 123.185 266.766 122.089 265.918C120.993 265.07 120.114 263.973 119.526 262.719C117.182 257.785 115.843 252.435 115.585 246.98C113.667 246.732 111.89 245.844 110.54 244.462C105.102 239.072 103.329 226.048 104.984 204.643C98.7014 194.351 90.0903 185.673 79.8414 179.304C73.3778 175.19 67.2027 170.642 61.3588 165.69C59.8128 170.661 58.8733 175.8 58.5608 180.996C56.6692 179.264 54.8959 177.494 53.1619 175.763C57.1027 179.697 61.0436 183.632 65.6937 187.567C75.2306 197.049 81.4571 209.876 88.3536 223.451C96.7869 240.449 105.457 257.998 121.22 271.494C144.55 291.521 174.185 289.475 181.751 288.57H182.855C183.466 288.571 184.071 288.442 184.628 288.191C185.185 287.94 185.682 287.573 186.086 287.114C186.868 285.999 187.415 284.737 187.692 283.404C187.97 282.072 187.973 280.697 187.702 279.363Z" fill="#B78D41"/>
<path d="M180.884 249.066C183.879 254.496 184.392 260.476 182.067 262.444C179.742 264.411 175.407 261.578 172.451 256.148C169.495 250.718 168.944 244.738 171.269 242.77C173.594 240.803 177.929 243.636 180.884 249.066Z" fill="#E6D7A9"/>
<path d="M106.403 121.975C104.077 122.762 101.949 123.628 99.8214 124.533C110.285 134.87 121.908 143.967 134.461 151.643C137.47 149.328 140.644 147.237 143.959 145.387C130.407 139.371 117.766 131.49 106.403 121.975Z" fill="#E9D182"/>
<path d="M157.633 260.594C165.2 252.725 167.88 218.651 181.278 202.243C190.894 190.439 198.618 182.058 203.978 176.668C172.451 197.246 164.175 228.33 159.249 246.508C156.688 255.912 155.308 261.578 151.643 263.427C151.016 263.735 150.332 263.909 149.634 263.939C151.146 264.175 152.695 263.987 154.107 263.397C155.52 262.806 156.74 261.836 157.633 260.594Z" fill="#B78D41"/>
<path d="M229.002 207.201C236.174 222.94 237.514 238.363 231.997 242.141C226.48 245.918 216.234 236.396 209.061 220.854C201.889 205.312 200.589 189.731 206.106 185.953C211.623 182.176 221.869 191.698 229.002 207.201Z" fill="#CCB767"/>
<path d="M222.263 195.515C226.716 203.62 227.899 212.237 224.904 214.755C221.909 217.274 215.879 212.709 211.426 204.604C206.973 196.498 205.79 187.881 208.786 185.363C211.781 182.845 217.81 187.37 222.263 195.515Z" fill="#E6D7A9"/>
<path d="M215.13 218.651C224.588 234.389 227.938 251.033 222.539 255.873C217.14 260.713 204.923 251.82 195.623 236.081C186.323 220.343 182.776 203.66 188.175 198.82C193.574 193.98 205.633 202.912 215.13 218.651Z" fill="#CCB767"/>
<path d="M205.396 206.099C212.45 213.693 216.234 222.546 213.869 225.772C211.505 228.999 203.859 225.772 196.845 218.179C189.83 210.585 186.007 201.771 188.372 198.505C190.736 195.239 198.342 198.544 205.396 206.099Z" fill="#E6D7A9"/>
<path d="M200.983 239.741C208.155 255.243 209.692 270.785 204.411 274.445C199.13 278.104 189.16 268.503 181.87 253.001C174.579 237.498 173.16 221.995 178.48 218.297C183.801 214.598 193.929 224.277 200.983 239.741Z" fill="#CCB767"/>
<path d="M194.165 228.605C198.618 236.711 199.84 245.328 196.845 247.807C193.85 250.286 187.82 245.8 183.367 237.695C178.914 229.589 177.732 220.972 180.727 218.454C183.722 215.936 189.751 220.343 194.165 228.605Z" fill="#E6D7A9"/>
<path d="M221.475 230.494C222.933 233.563 224.312 236.711 225.416 239.898C225.525 240.154 225.617 240.417 225.692 240.685C226.368 240.907 227.07 241.039 227.78 241.078C228.544 241.099 229.302 240.934 229.988 240.598C230.675 240.263 231.269 239.766 231.721 239.15C232.665 237.452 233.224 235.568 233.36 233.631C233.496 231.693 233.206 229.75 232.509 227.937C232.233 227.032 231.997 226.127 231.682 225.261C230.926 227.236 229.465 228.862 227.582 229.828C225.698 230.794 223.523 231.031 221.475 230.494Z" fill="#B78D41"/>
<path d="M204.451 243.479C205.475 245.997 206.5 248.515 207.446 251.348L207.997 251.938C209.139 253.332 210.544 254.487 212.133 255.338C213.722 256.188 215.464 256.718 217.258 256.896C218.13 256.928 218.995 256.739 219.774 256.347C220.553 255.955 221.219 255.372 221.711 254.653C222.647 252.616 223.095 250.389 223.02 248.149C222.945 245.909 222.348 243.717 221.278 241.747C220.923 240.764 220.529 239.859 220.135 238.914C217.574 245.289 210.165 244.895 204.451 243.479Z" fill="#B78D41"/>
<path d="M187.86 258.47C188.53 260.398 189.121 262.404 189.672 264.608C190.555 266.049 191.515 267.442 192.549 268.779C193.491 270.209 194.733 271.418 196.189 272.322C197.645 273.226 199.281 273.802 200.983 274.012C201.745 274.019 202.498 273.849 203.182 273.514C203.866 273.18 204.463 272.69 204.923 272.084C205.831 270.37 206.358 268.481 206.467 266.546C206.575 264.61 206.264 262.674 205.554 260.87C205.042 259.06 204.49 257.289 203.899 255.519C201.219 262.09 193.101 260.319 187.86 258.47Z" fill="#B78D41"/>
<path d="M77.7527 68.4636C77.7527 67.2832 77.7527 66.1028 77.7527 64.883C77.7527 63.7026 77.9891 62.4829 78.1468 61.3025C80.1172 46.7441 88.4718 32.8153 106.008 28.6839C109.602 27.8697 113.28 27.4866 116.964 27.5428C123.537 27.536 130.042 28.8752 136.077 31.4775C129.646 25.444 122.546 20.1635 114.915 15.7388C103.227 8.57758 89.8462 4.64014 76.1369 4.32816C71.1389 4.33298 66.1566 4.88717 61.28 5.98072C44.7573 9.321 29.9324 18.3441 19.3889 31.4775C18.2067 32.9727 17.1426 34.5072 16.0786 36.0418C15.6451 36.75 15.251 37.4582 14.857 38.1665C14.4629 38.8747 13.7535 39.9371 13.2412 40.8421C12.7289 41.7471 12.256 42.8488 11.7831 43.7931C11.3102 44.7374 11.1132 45.1702 10.7979 45.8785C10.4826 46.5867 9.81268 48.2393 9.33978 49.4984C9.33978 50.0099 8.9457 50.5214 8.74866 51.0329C8.27576 52.4494 7.84226 53.8265 7.44818 55.243C7.44818 55.6365 7.21173 55.9906 7.13291 56.3841C6.69942 57.958 6.34475 59.5318 6.02948 61.1451C6.00707 61.3938 6.00707 61.644 6.02948 61.8927C5.71421 63.6239 5.39895 65.3552 5.2019 67.1651C5.18264 67.2692 5.18264 67.3759 5.2019 67.4799C4.96545 69.3686 4.80782 71.4146 4.729 73.2246C6.20025 72.0442 7.65836 70.9425 9.10333 69.9194C39.6448 47.8458 64.0386 61.6172 74.6 70.2736C75.8487 71.2746 77.0456 72.3383 78.1862 73.4606C77.8709 71.69 77.7527 70.0768 77.7527 68.4636Z" fill="#2C8CC2"/>
<path d="M8.90629 69.762C9.20464 56.3355 12.8045 43.1882 19.3889 31.4775C10.2246 43.4604 5.03117 57.9985 4.53196 73.0672C6.00321 71.8868 7.46132 70.7851 8.90629 69.762Z" fill="#1E80A5"/>
<path d="M77.7527 68.4636C77.7482 66.0411 77.9194 63.6215 78.265 61.2238C78.2753 58.5795 78.5526 55.9431 79.0926 53.3544C76.526 58.5425 74.9363 64.1575 74.403 69.9194C75.6516 70.9205 76.8486 71.9842 77.9892 73.1065C77.8709 71.69 77.7527 70.0768 77.7527 68.4636Z" fill="#55B2D9"/>
<path d="M81.9694 89.7109C79.7925 84.485 78.4622 78.9466 78.0286 73.3033C76.888 72.181 75.6911 71.1172 74.4424 70.1162C63.881 61.4598 39.4872 47.6884 8.9457 69.762C7.50072 70.7851 6.04261 71.8868 4.57137 73.0672C4.57137 74.523 4.57137 75.9002 4.57137 77.356C4.57137 78.8118 4.57137 81.2907 4.80782 83.4548C4.80782 84.163 4.80782 84.9106 5.00486 85.6582C5.2019 86.4058 5.24131 88.3338 5.39894 89.5929C5.55658 90.852 5.71421 91.4028 5.83244 92.3078C5.95066 93.2128 6.22652 94.7473 6.46297 95.9671C6.69942 97.1868 6.89646 97.9738 7.13291 98.9574C7.36936 99.9411 7.64522 101.279 7.92108 102.42C8.19694 103.561 8.55161 104.584 8.82747 105.646L9.85209 108.991C10.2068 110.093 10.6008 111.273 11.0343 112.375C11.4678 113.476 11.7831 114.539 12.1772 115.601L13.6353 119.182L15.0146 122.329L16.7091 126.028L18.2461 129.058L20.2953 132.993C20.847 133.976 21.3987 134.92 21.9505 135.944L24.315 139.878C24.9061 140.783 25.4972 141.767 26.1277 142.711C26.7583 143.656 27.8617 145.426 28.8075 146.646C29.7533 147.866 30.108 148.456 30.7385 149.4C31.3691 150.344 32.7483 152.154 33.8124 153.571C34.8764 154.987 35.1523 155.302 35.8222 156.128C36.965 157.584 38.1079 159.04 39.2901 160.457C40.4724 161.873 40.6694 162.031 41.3394 162.857L45.2802 167.342C45.9107 168.051 46.5807 168.759 47.2506 169.428C48.7481 171.041 50.2063 172.615 51.7826 174.189C52.2949 174.74 52.886 175.251 53.3983 175.763C55.1323 177.494 56.9057 179.264 58.7973 180.996C59.1546 175.767 60.1471 170.601 61.7529 165.611C64.6506 156.373 69.5542 147.888 76.1142 140.76C82.6741 133.632 90.7286 128.038 99.7032 124.376C101.831 123.471 103.959 122.605 106.284 121.818C95.718 113.217 87.3785 102.205 81.9694 89.7109Z" fill="#D12E2B"/>
<path d="M61.5165 165.768C41.6815 149.482 26.0008 128.729 15.7633 105.214C11.0063 94.0277 8.7212 81.9491 9.06392 69.8014C7.61895 70.8244 6.16084 71.9261 4.68959 73.1065C4.68959 74.5624 4.68959 75.9395 4.68959 77.3953C4.68959 78.8512 4.68959 81.33 4.92604 83.4941C4.92604 84.2417 4.92604 84.95 5.12309 85.6975C5.12309 87.0747 5.35954 88.3731 5.51717 89.6322C5.6748 90.8913 5.83244 91.4422 5.95066 92.3472C6.06889 93.2521 6.34475 94.7867 6.5812 96.0064C6.81765 97.2262 7.01469 98.0131 7.25114 98.9968C7.48759 99.9805 7.76345 101.318 8.0393 102.459L8.98511 105.686C9.30037 106.827 9.61564 107.889 9.97031 109.03C10.325 110.171 10.7191 111.312 11.1526 112.453C11.5861 113.594 11.9013 114.578 12.2954 115.641L13.7535 119.221L15.1328 122.369C15.6845 123.589 16.2362 124.848 16.8668 126.067C17.4973 127.287 17.852 128.074 18.3643 129.097L20.4135 133.032L22.0687 135.944C22.8174 137.242 23.6056 138.58 24.4332 139.878L26.2066 142.711L28.9257 146.646L30.8567 149.321C31.842 150.738 32.8666 152.115 33.9306 153.532L35.9404 156.089C37.0439 157.545 38.2261 159.001 39.4478 160.457C40.0783 161.244 40.7482 161.991 41.4182 162.778L45.359 167.342C45.9501 168.011 46.6201 168.68 47.2506 169.349C48.7481 170.962 50.2457 172.575 51.8614 174.189C52.3343 174.7 52.886 175.172 53.3589 175.645C55.1323 177.415 56.9451 179.186 58.8367 180.956C59.1201 175.805 60.0198 170.706 61.5165 165.768Z" fill="#BB2824"/>
<path d="M81.9694 89.7109C79.7925 84.485 78.4622 78.9466 78.0286 73.3033C76.888 72.181 75.6911 71.1172 74.4424 70.1162C72.5508 90.8126 85.3979 109.857 99.782 124.376C101.871 123.471 103.999 122.605 106.324 121.818C95.743 113.222 87.3897 102.209 81.9694 89.7109Z" fill="#D4775B"/>
<path d="M293.316 69.4473C292.532 60.4534 290.143 51.6721 286.262 43.5177C280.113 31.7609 270.883 21.8913 259.556 14.9618C248.23 8.03218 235.231 4.30256 221.948 4.17077C197.554 4.17077 177.416 17.4307 164.845 28.6052C169.103 27.0669 173.597 26.2814 178.126 26.2837C185.076 26.3852 191.921 27.9964 198.185 31.0054C203.305 33.3067 207.873 36.674 211.583 40.8814C217.747 48.322 220.983 57.7501 220.687 67.4012C220.687 68.0701 220.687 68.739 220.687 69.4079C257.573 40.9995 285.435 62.0501 293.316 69.4473Z" fill="#E58729"/>
<path d="M211.583 41.0388C217.711 48.4382 220.945 57.8038 220.687 67.4012C220.687 68.0701 220.687 68.739 220.687 69.4079C221.751 68.5423 222.775 67.7947 223.84 67.0471C223.185 57.1447 218.808 47.8549 211.583 41.0388Z" fill="#CC7B29"/>
<path d="M286.262 43.5177C288.178 51.0181 289.353 58.6881 289.77 66.4176C291.228 67.5586 292.41 68.621 293.316 69.4473C292.532 60.4534 290.143 51.6721 286.262 43.5177Z" fill="#E8A160"/>
<path d="M106.403 181.429C106.126 182.669 106.121 183.953 106.386 185.196C106.651 186.438 107.181 187.609 107.94 188.629C110.54 180.132 114.725 172.203 120.274 165.257C116.752 166.513 113.619 168.666 111.186 171.502C108.753 174.339 107.104 177.76 106.403 181.429Z" fill="#E6D7A9"/>
<path d="M193.889 119.929C181.566 130.33 167.852 138.964 153.141 145.584C152.907 145.824 152.625 146.011 152.313 146.134L150.895 146.725C144.786 150.659 139.072 154.24 134.777 156.876C127.552 162.717 121.606 169.978 117.308 178.209C113.01 186.439 110.452 195.463 109.792 204.722C108.412 222.074 109.792 231.36 111.329 236.396C111.82 238.181 112.724 239.825 113.969 241.196C114.382 241.649 114.894 241.999 115.467 242.219C114.797 225.654 117.595 205.194 121.535 195.869C121.632 195.559 121.792 195.272 122.006 195.028C122.221 194.783 122.484 194.587 122.779 194.45C123.074 194.314 123.395 194.24 123.72 194.235C124.045 194.23 124.368 194.294 124.667 194.421C124.966 194.548 125.236 194.737 125.457 194.974C125.679 195.212 125.848 195.493 125.954 195.8C126.06 196.107 126.101 196.433 126.073 196.757C126.044 197.08 125.949 197.395 125.791 197.679C120.156 211.057 117.003 249.026 123.624 260.634C123.875 261.259 124.27 261.816 124.776 262.26C125.283 262.705 125.887 263.024 126.54 263.191C126.978 263.314 127.444 263.287 127.865 263.116C128.285 262.945 128.637 262.64 128.865 262.247C123.466 250.128 129.929 216.329 133.437 207.161C133.665 206.595 134.107 206.142 134.668 205.899C135.228 205.656 135.862 205.643 136.432 205.863C136.715 205.968 136.974 206.128 137.194 206.333C137.415 206.539 137.593 206.786 137.717 207.06C137.842 207.334 137.911 207.63 137.92 207.931C137.929 208.233 137.879 208.532 137.772 208.814C133.988 218.493 128.432 250.954 133.2 260.673C133.357 261.117 133.607 261.521 133.933 261.861C134.26 262.2 134.655 262.466 135.092 262.641C137.772 263.467 140.176 260.909 141.358 257.919C140.018 254.26 139.86 248.476 141.358 238.757C142.501 230.17 144.643 221.745 147.742 213.654C147.977 213.085 148.429 212.633 148.998 212.397C149.567 212.161 150.207 212.16 150.776 212.395C151.332 212.645 151.769 213.1 151.997 213.664C152.224 214.229 152.225 214.859 151.998 215.424C149.048 223.17 146.973 231.22 145.811 239.426C143.249 257.211 146.56 258.391 148.964 259.296C149.057 259.336 149.158 259.357 149.259 259.357C149.361 259.357 149.461 259.336 149.555 259.296C149.754 259.157 149.927 258.984 150.067 258.785C152.296 254.527 153.89 249.967 154.796 245.249C161.062 222.192 172.687 179.343 226.953 160.378C232.95 158.453 238.766 156.004 244.332 153.059C232.076 121.975 202.598 119.772 193.889 119.929Z" fill="#E6D7A9"/>
<path d="M193.889 119.929C181.566 130.33 167.852 138.964 153.141 145.584C152.907 145.824 152.625 146.011 152.313 146.134C151.919 146.134 113.26 161.047 109.792 204.722C108.412 222.074 109.792 231.36 111.329 236.396C110.094 224.146 111.376 211.774 115.096 200.035C118.816 188.297 124.896 177.44 132.964 168.129C148.727 150.226 183.17 142.239 204.845 120.913C201.232 120.241 197.564 119.911 193.889 119.929Z" fill="#CCB767"/>
<path d="M240.391 145.347C220.687 154.909 198.658 161.598 185.613 173.677C163.663 193.98 158.028 214.086 153.259 235.806C151.239 243.32 150.115 251.046 149.909 258.824C152.139 254.567 153.732 250.007 154.638 245.289C160.904 222.231 172.53 179.382 226.795 160.417C233.898 158.09 240.74 155.031 247.209 151.289L244.332 153.059C243.22 150.391 241.902 147.812 240.391 145.347Z" fill="white"/>
<path d="M293.632 73.3426C293.632 72.0835 293.435 70.8638 293.356 69.644C293.348 69.5787 293.348 69.5126 293.356 69.4473C292.449 68.621 291.267 67.5586 289.809 66.4176C279.208 58.076 254.933 45.1702 223.761 67.0471C222.697 67.7947 221.672 68.5423 220.608 69.4079C220.44 74.0398 219.725 78.6357 218.48 83.1006V83.8089C218.283 84.4778 218.125 85.1073 217.928 85.7369C217.731 86.3664 217.377 87.4681 217.101 88.3338C216.825 89.1994 216.037 91.0881 215.446 92.2685C215.446 92.5439 215.17 92.8193 215.051 93.1341C214.46 94.4719 213.79 95.731 213.12 97.0688C213.039 97.1917 212.973 97.3237 212.923 97.4623C212.214 98.6427 211.505 99.8624 210.756 101.003C210.756 101.24 210.48 101.436 210.362 101.633C209.521 102.892 208.654 104.112 207.761 105.292C207.679 105.418 207.586 105.536 207.485 105.646C206.618 106.827 205.672 108.007 204.687 109.148C203.662 110.381 202.598 111.562 201.495 112.69V112.886C199.249 115.247 196.884 117.49 194.441 119.654C198.113 119.61 201.781 119.913 205.396 120.559C212.707 121.837 219.641 124.724 225.694 129.012C231.747 133.3 236.768 138.88 240.391 145.347C241.802 147.873 243.014 150.504 244.017 153.217L247.209 151.446L247.957 151.053L250.716 149.44C250.957 149.268 251.207 149.111 251.465 148.967C253.75 147.551 256.115 145.977 258.479 144.246L259.386 143.537C260.292 142.908 261.159 142.2 262.066 141.491L263.051 140.704L266.164 138.068C266.285 137.94 266.417 137.821 266.558 137.714C267.701 136.652 268.844 135.589 269.947 134.488L270.814 133.583C271.642 132.717 272.469 131.891 273.258 130.986L274.322 129.845C275.11 128.9 275.937 127.917 276.726 126.894L277.435 126.028C278.459 124.73 279.445 123.353 280.351 122.093C280.588 121.739 280.785 121.385 281.021 121.07C281.73 119.969 282.4 118.867 283.07 117.726L283.898 116.27C284.528 115.168 285.119 114.027 285.671 112.847C285.908 112.414 286.105 111.981 286.341 111.509C287.09 109.935 287.799 108.322 288.43 106.591C288.43 106.315 288.43 106.04 288.706 105.764C289.218 104.348 289.73 102.892 290.164 101.358L290.637 99.6657C290.991 98.3279 291.307 96.9901 291.582 95.731C291.582 95.1408 291.858 94.5899 291.937 93.9997C292.292 92.0717 292.607 90.065 292.844 88.0977C292.872 87.8529 292.939 87.614 293.041 87.3894C293.399 84.1753 293.583 80.9441 293.592 77.7101C293.75 75.9789 293.671 74.7591 293.632 73.3426Z" fill="#E6CC23"/>
<path d="M223.051 85.186C224.029 79.1381 224.254 72.9928 223.721 66.8897C222.657 67.6373 221.633 68.3849 220.569 69.2505C220.447 73.1118 219.918 76.9496 218.992 80.7005V80.8972C218.992 81.2907 218.992 81.6448 218.716 81.9596C218.693 82.0499 218.693 82.1447 218.716 82.235C218.716 82.8646 218.401 83.3761 218.322 83.6515C218.244 83.9269 217.968 84.95 217.771 85.5795C217.574 86.2091 217.219 87.3108 216.943 88.1764C216.667 89.042 215.879 90.9307 215.288 92.1111C215.288 92.1111 215.288 92.1111 215.288 92.3078C214.539 93.921 213.751 95.5736 212.884 97.1081C212.214 98.2885 211.505 99.469 210.795 100.649C210.795 100.885 210.519 101.082 210.401 101.279C209.534 102.617 208.667 103.876 207.721 105.214C205.627 107.925 203.377 110.513 200.983 112.965C198.697 115.326 196.332 117.647 193.85 119.811C197.522 119.767 201.19 120.07 204.805 120.716C214.664 111.22 221.082 98.7214 223.051 85.186Z" fill="#C8A730"/>
<path d="M293.632 73.3426C293.632 72.0835 293.435 70.8638 293.356 69.644V69.4473C292.449 68.621 291.267 67.5586 289.809 66.4176C290.597 84.2024 285.868 99.9411 274.046 118.906C266.519 130.71 254.145 138.776 240.667 145.347C242.078 147.873 243.29 150.504 244.292 153.217L247.484 151.446C247.484 151.446 247.484 151.446 247.76 151.446L248.273 151.171L250.992 149.558C251.232 149.386 251.482 149.229 251.741 149.085C254.026 147.669 256.391 146.095 258.755 144.364L259.662 143.656C260.568 143.026 261.435 142.357 262.302 141.649L263.366 140.783C264.391 139.944 265.415 139.078 266.44 138.186C266.561 138.058 266.693 137.939 266.834 137.832C267.977 136.77 269.12 135.707 270.223 134.606L270.696 134.134L271.13 133.661C271.957 132.835 272.745 131.969 273.533 131.104L274.006 130.592L274.597 129.923C275.425 128.979 276.213 128.035 277.001 127.012L277.711 126.107C278.735 124.848 279.721 123.471 280.627 122.172L281.1 121.425V121.11C281.809 120.047 282.479 118.946 283.149 117.805L283.464 117.293C283.464 116.939 283.819 116.664 284.016 116.309C284.607 115.208 285.198 114.106 285.75 112.926C285.986 112.493 286.184 112.06 286.42 111.588C287.234 109.847 287.944 108.06 288.548 106.237V106.001C288.526 105.791 288.526 105.58 288.548 105.371C289.06 103.955 289.533 102.499 290.006 101.003C290.006 100.531 290.243 100.059 290.4 99.5476C290.383 99.4566 290.383 99.3632 290.4 99.2722C290.755 97.9344 291.07 96.5966 291.346 95.3375C291.346 94.7473 291.622 94.1965 291.701 93.6063C292.055 91.6783 292.371 89.6716 292.607 87.7042C292.636 87.4595 292.702 87.2206 292.804 86.996C293.162 83.7818 293.347 80.5507 293.356 77.3166C293.75 75.9789 293.671 74.7591 293.632 73.3426Z" fill="#ECDA72"/>
<path d="M295.563 56.5021C288.784 29.1167 267.977 8.45958 237.751 1.77061C232.578 0.602202 227.291 0.00839125 221.987 0C183.525 0 156.057 30.3758 149.082 38.8354C140.049 28.0571 129.224 18.913 117.082 11.8041C104.721 4.31983 90.5913 0.24639 76.137 0C70.8332 0.00839125 65.5467 0.602202 60.3736 1.77061C22.6204 10.1122 0 39.9371 0 77.356C0.748759 146.843 57.418 181.586 71.2503 202.086C76.013 209.692 80.3162 217.575 84.1369 225.694C92.7673 243.085 101.674 261.106 118.146 275.232C133.23 287.667 152.262 294.322 171.82 294C176.017 294.031 180.208 293.715 184.352 293.056C186.273 292.679 188.018 291.684 189.318 290.223C190.591 288.656 191.505 286.829 191.995 284.871C192.486 282.913 192.54 280.872 192.155 278.891C192.155 277.474 191.801 276.018 191.564 274.641C194.122 277.049 197.469 278.448 200.983 278.576C202.473 278.577 203.943 278.22 205.266 277.535C206.59 276.85 207.729 275.858 208.588 274.641C209.952 272.425 210.801 269.931 211.074 267.344C211.347 264.757 211.036 262.141 210.165 259.69C210.152 259.585 210.152 259.479 210.165 259.375C212.341 260.7 214.828 261.433 217.377 261.499C219.005 261.533 220.616 261.158 222.062 260.409C223.508 259.659 224.742 258.56 225.652 257.211C226.681 255.495 227.36 253.593 227.651 251.615C227.942 249.637 227.838 247.62 227.347 245.682H228.056C229.553 245.686 231.029 245.33 232.359 244.646C233.69 243.961 234.836 242.967 235.701 241.747C237.09 239.487 237.94 236.939 238.186 234.299C238.432 231.658 238.067 228.997 237.12 226.52C236.174 223.215 235.11 220.028 233.967 216.88C233.692 216.132 233.416 215.306 233.1 214.559C230.829 208.735 228.197 203.058 225.219 197.561C226.243 197.617 227.269 197.617 228.293 197.561C232.464 197.748 236.591 196.649 240.115 194.413C241.743 193.447 243.107 192.093 244.083 190.473C245.06 188.853 245.619 187.016 245.711 185.127C245.356 179.186 229.514 173.087 217.14 169.388C220.858 167.647 224.674 166.124 228.569 164.824C229.199 164.824 291.622 146.095 297.77 88.2551C298.761 77.6213 298.016 66.8973 295.563 56.5021ZM145.417 41.9831C146.038 42.459 146.63 42.9714 147.19 43.5177L147.427 43.7931H147.821H148.097H148.885H149.161C149.617 43.7083 150.025 43.4556 150.303 43.0849C150.303 43.0849 150.855 42.3766 152.037 41.1569C155.474 37.7782 159.552 35.119 164.032 33.3352C168.512 31.5514 173.304 30.6791 178.126 30.7693C184.439 30.8635 190.654 32.341 196.332 35.0974C202.556 37.8129 207.801 42.3615 211.364 48.1346C214.928 53.9076 216.641 60.6297 216.273 67.4012C216.258 72.5553 215.515 77.6815 214.066 82.6285C214.066 83.2974 213.712 83.8876 213.515 84.5171C213.317 85.1467 213.042 86.1304 212.766 86.9173L214.815 87.6255L212.805 86.9173C206.973 104.033 190.697 117.962 176.116 127.995C167.358 133.538 158.219 138.456 148.767 142.711C113.299 127.209 93.319 106.551 86.0285 88.0977C83.3963 81.8733 82.0556 75.1806 82.0876 68.4242C82.0876 52.6855 89.1417 36.9467 107.151 32.776C110.365 32.0072 113.659 31.6242 116.964 31.6349C124.793 31.721 132.466 33.8361 139.23 37.773C141.417 39.0046 143.499 40.4127 145.456 41.9831H145.417ZM204.923 272.084C204.463 272.69 203.866 273.18 203.182 273.514C202.498 273.849 201.745 274.019 200.983 274.012C199.253 273.824 197.587 273.258 196.102 272.353C194.617 271.449 193.35 270.228 192.392 268.779C191.357 267.442 190.397 266.049 189.515 264.608C188.963 262.444 188.372 260.398 187.702 258.47C186.343 254.083 184.616 249.818 182.54 245.721C182.187 244.988 181.765 244.289 181.278 243.636C180.346 239.659 179.688 235.623 179.308 231.556C178.559 223.451 180.609 220.461 181.278 219.752C181.47 219.516 181.709 219.324 181.981 219.188C182.253 219.053 182.551 218.977 182.855 218.965C184.313 218.965 186.244 220.5 188.057 223.097C192.042 228.915 195.498 235.078 198.382 241.511C198.815 242.495 199.288 243.518 199.722 244.541C201.219 248.003 202.638 251.702 203.899 255.519C204.49 257.289 205.042 259.06 205.554 260.87C206.264 262.674 206.575 264.61 206.467 266.546C206.358 268.481 205.831 270.37 204.923 272.084ZM221.554 254.535C221.062 255.254 220.395 255.837 219.617 256.229C218.838 256.621 217.972 256.81 217.101 256.778C213.533 256.379 210.265 254.599 207.997 251.82L207.446 251.23C206.5 248.515 205.475 245.997 204.451 243.361C201.081 235.292 196.909 227.58 191.998 220.343L191.17 219.241C190.303 216.172 189.751 213.654 189.475 212.119C187.978 204.801 188.963 200.315 190.342 198.623C190.546 198.357 190.809 198.14 191.109 197.99C191.41 197.84 191.74 197.76 192.076 197.757C192.786 197.757 194.914 198.19 198.066 201.692C204.819 209.951 210.647 218.923 215.446 228.448C216.904 231.32 218.283 234.232 219.386 237.262C219.583 237.655 219.741 238.127 219.938 238.521C220.135 238.914 220.726 240.37 221.081 241.354C222.227 243.343 222.883 245.576 222.992 247.868C223.102 250.161 222.663 252.446 221.711 254.535H221.554ZM231.564 225.261C231.879 226.127 232.115 227.032 232.391 227.937C233.106 229.741 233.416 231.68 233.3 233.618C233.185 235.555 232.646 237.443 231.721 239.15C231.269 239.766 230.675 240.263 229.988 240.598C229.302 240.934 228.544 241.099 227.78 241.078C227.07 241.039 226.368 240.907 225.692 240.685C225.617 240.417 225.525 240.154 225.416 239.898C224.155 236.711 222.775 233.563 221.475 230.494C217.465 222.115 212.759 214.087 207.406 206.493C206.736 203.03 206.421 200.236 206.263 198.623C205.554 190.518 207.603 187.567 208.273 186.819C208.459 186.577 208.697 186.38 208.97 186.244C209.244 186.108 209.544 186.035 209.85 186.032C211.268 186.032 213.239 187.567 215.051 189.967C222.337 200.837 227.955 212.733 231.721 225.261H231.564ZM240.627 185.914C240.493 186.999 240.105 188.038 239.496 188.946C238.887 189.855 238.073 190.609 237.12 191.147C234.846 192.425 232.338 193.233 229.745 193.523C227.153 193.814 224.528 193.581 222.027 192.839C220.844 190.911 219.741 189.219 218.677 187.685C215.13 182.648 211.82 181.586 209.692 181.586C208.74 181.591 207.799 181.801 206.936 182.201C206.072 182.602 205.305 183.184 204.687 183.907C203.175 186.124 202.118 188.618 201.577 191.245C201.036 193.873 201.021 196.581 201.534 199.213C200.449 197.643 199.04 196.321 197.402 195.337C195.764 194.354 193.935 193.73 192.037 193.508C191.014 193.503 190.003 193.731 189.081 194.174C188.16 194.617 187.351 195.264 186.717 196.066C183.958 199.449 183.328 205.588 184.904 213.418C184.904 213.85 184.904 214.401 185.219 214.952C184.49 214.734 183.734 214.615 182.973 214.598C182.025 214.603 181.088 214.809 180.225 215.202C179.362 215.596 178.593 216.168 177.968 216.88C174.941 221.354 173.808 226.842 174.816 232.147C174.816 233.76 175.288 236.475 175.88 239.819H174.737C170.008 239.819 166.422 245.013 165.673 253.001C165.323 257.046 165.323 261.114 165.673 265.159C162.478 264.821 159.261 265.554 156.53 267.244C156.273 267.407 156.052 267.62 155.88 267.871C155.709 268.122 155.59 268.405 155.531 268.703C155.472 269.001 155.474 269.308 155.537 269.605C155.601 269.902 155.724 270.183 155.899 270.431C156.106 270.744 156.387 271 156.717 271.179C157.047 271.357 157.416 271.452 157.791 271.454C158.255 271.463 158.71 271.325 159.092 271.061C162.284 268.897 170.914 270.353 170.914 270.353C170.001 264.761 169.763 259.081 170.205 253.433C170.275 252.653 170.394 251.878 170.559 251.112C171.387 246.744 173.16 244.423 174.5 244.423C175.84 244.423 177.18 245.879 178.441 248.122C180.504 252.292 182.231 256.621 183.604 261.067C185.521 267.127 186.841 273.361 187.544 279.678C187.84 280.926 187.87 282.222 187.633 283.483C187.395 284.744 186.895 285.941 186.165 286.996C184.858 288.139 183.239 288.865 181.515 289.082C173.949 289.987 144.313 292.033 120.984 272.005C105.22 258.509 96.5505 240.96 88.1171 223.963C85.0433 217.785 82.0482 211.726 78.7773 206.06C75.3708 199.329 70.8997 193.191 65.5361 187.881C22.8568 150.659 4.29551 110.486 4.33492 77.356C4.33492 41.6684 25.4184 14.0075 61.28 5.98073C66.1566 4.88718 71.1389 4.33298 76.137 4.32816C89.8208 4.55697 103.2 8.39885 114.915 15.4633C122.546 19.8881 129.646 25.1685 136.077 31.2021C130.042 28.5997 123.537 27.2606 116.964 27.2674C113.315 27.2592 109.677 27.6819 106.127 28.5265C85.7132 33.3268 77.6739 51.4657 77.7527 68.3849C77.7297 75.6768 79.1632 82.9001 81.9694 89.6322C89.6146 108.952 109.555 129.451 143.841 145.151C137.176 148.844 131.083 153.482 125.752 158.922H125.279C125.279 158.922 105.26 162.149 101.989 180.602C101.372 182.976 101.511 185.484 102.386 187.775C103.262 190.067 104.831 192.03 106.875 193.39C106.048 197.017 105.481 200.699 105.181 204.407C103.486 225.969 105.181 239.111 110.698 244.502C112.048 245.884 113.825 246.771 115.742 247.02C116 252.475 117.34 257.824 119.683 262.759C120.263 264.056 121.151 265.193 122.27 266.071C123.39 266.949 124.707 267.54 126.107 267.795H127.289C129.022 267.81 130.691 267.146 131.939 265.946C132.552 266.399 133.229 266.757 133.949 267.008C134.743 267.238 135.565 267.357 136.392 267.362C138.106 267.256 139.764 266.712 141.207 265.782C142.649 264.852 143.827 263.567 144.629 262.05C145.542 262.68 146.536 263.183 147.584 263.546C148.216 263.774 148.883 263.894 149.555 263.9C150.362 263.894 151.157 263.706 151.88 263.349C155.387 261.499 156.924 255.834 159.486 246.43C164.569 227.032 173.83 192.8 210.874 172.536C226.204 177.061 240.076 183.199 240.785 185.717L240.627 185.914ZM120.274 165.257C114.781 172.215 110.65 180.144 108.097 188.629C107.311 187.622 106.753 186.457 106.461 185.214C106.168 183.971 106.148 182.68 106.403 181.429C107.104 177.76 108.753 174.339 111.186 171.502C113.619 168.666 116.752 166.513 120.274 165.257ZM293.001 87.7436C287.169 142.436 227.662 160.181 226.953 160.417C172.687 179.382 161.062 222.231 154.796 245.289C153.062 251.741 151.249 258.391 149.555 259.335C149.461 259.375 149.361 259.396 149.259 259.396C149.158 259.396 149.057 259.375 148.964 259.335C146.56 258.43 143.249 257.25 145.811 239.465C146.934 231.264 148.97 223.214 151.88 215.464C152.107 214.899 152.106 214.268 151.878 213.704C151.651 213.139 151.214 212.684 150.658 212.434C150.089 212.2 149.449 212.2 148.88 212.437C148.311 212.673 147.859 213.125 147.624 213.693C144.525 221.784 142.382 230.209 141.24 238.796C139.86 248.515 140.018 254.299 141.24 257.958C140.057 260.949 137.653 263.506 134.974 262.68C134.536 262.505 134.141 262.239 133.815 261.9C133.489 261.561 133.239 261.156 133.082 260.713C128.432 250.955 133.988 218.493 137.929 208.775C138.037 208.493 138.087 208.193 138.078 207.892C138.068 207.591 137.999 207.295 137.875 207.021C137.75 206.746 137.573 206.499 137.352 206.294C137.131 206.088 136.872 205.929 136.589 205.824C136.019 205.604 135.386 205.617 134.825 205.86C134.265 206.103 133.823 206.556 133.594 207.122C130.048 216.408 123.466 250.128 128.865 262.247C128.637 262.64 128.285 262.945 127.865 263.116C127.444 263.287 126.978 263.314 126.54 263.191C125.887 263.024 125.283 262.705 124.776 262.26C124.27 261.816 123.875 261.259 123.624 260.634C117.003 249.105 120.156 211.135 125.791 197.679C125.949 197.395 126.044 197.08 126.073 196.757C126.101 196.433 126.06 196.107 125.954 195.8C125.848 195.493 125.679 195.212 125.457 194.974C125.236 194.737 124.966 194.548 124.667 194.421C124.368 194.294 124.045 194.23 123.72 194.235C123.395 194.24 123.074 194.314 122.779 194.45C122.484 194.587 122.221 194.783 122.006 195.028C121.792 195.272 121.632 195.559 121.535 195.869C117.595 205.194 114.797 225.654 115.467 242.219C114.894 241.999 114.382 241.649 113.969 241.196C111.526 238.757 107.703 230.77 109.792 204.722C113.26 161.322 151.919 146.37 152.313 146.213C161.553 141.886 170.469 136.903 178.993 131.301C193.968 121.267 210.519 106.748 216.864 88.3338C217.14 87.4681 217.455 86.6419 217.692 85.7369C217.928 84.8319 218.046 84.4778 218.244 83.8089C219.801 78.478 220.597 72.9543 220.608 67.4012C220.966 59.8077 219.016 52.2836 215.015 45.8164C211.013 39.3491 205.146 34.2411 198.185 31.1627C191.921 28.1538 185.076 26.5426 178.126 26.4411C173.597 26.4388 169.103 27.2243 164.845 28.7626C177.338 17.5881 197.554 4.28881 221.948 4.32816C226.945 4.35265 231.925 4.90661 236.805 5.98073C264.391 12.1582 283.149 29.9036 290.4 53.9839C294.972 67.7947 293.001 87.5075 293.001 87.7436Z" fill="#A22426"/>
<path d="M381.985 134.921V113.319H364.488V134.921H354.399V83.258H364.488V104.387H381.985V83.258H392.113V134.921H381.985Z" fill="#5E3814"/>
<path d="M436.921 129.845C435.109 131.691 432.934 133.144 430.534 134.112C428.133 135.081 425.558 135.543 422.97 135.471C420.371 135.535 417.787 135.069 415.374 134.102C412.962 133.135 410.773 131.686 408.941 129.845C403.739 124.612 403.857 118.041 403.857 109.227C403.857 100.413 403.857 93.8423 408.941 88.6092C410.767 86.7605 412.956 85.3069 415.369 84.3389C417.783 83.3709 420.37 82.9092 422.97 82.9826C425.559 82.9011 428.137 83.3593 430.539 84.3281C432.941 85.2969 435.114 86.7549 436.921 88.6092C442.162 93.8423 442.083 100.413 442.083 109.227C442.083 118.041 442.162 124.494 436.921 129.845ZM429.551 94.4326C428.734 93.5385 427.734 92.83 426.619 92.3549C425.504 91.8797 424.3 91.649 423.088 91.6783C421.865 91.6479 420.648 91.8778 419.521 92.3527C418.393 92.8275 417.379 93.5365 416.546 94.4326C414.615 96.5966 414.064 98.9968 414.064 108.952C414.064 118.906 414.615 121.267 416.546 123.431C417.37 124.34 418.382 125.061 419.511 125.543C420.64 126.025 421.861 126.258 423.088 126.225C424.304 126.257 425.513 126.024 426.629 125.541C427.745 125.059 428.743 124.339 429.551 123.431C431.522 121.267 432.113 118.867 432.113 108.952C432.113 99.0361 431.403 96.754 429.551 94.4326Z" fill="#5E3814"/>
<path d="M485.747 129.491C481.957 133.245 476.853 135.382 471.514 135.448C466.175 135.514 461.019 133.505 457.137 129.845C451.896 124.612 452.053 118.041 452.053 109.227C452.053 100.413 452.053 93.8423 457.137 88.6092C458.949 86.7627 461.123 85.3098 463.524 84.3416C465.924 83.3733 468.5 82.9107 471.088 82.9826C475.835 82.7237 480.501 84.2934 484.123 87.3683C487.745 90.4431 490.048 94.7884 490.555 99.5083H480.388C480.084 97.3074 478.955 95.3037 477.228 93.9016C475.502 92.4994 473.308 91.8033 471.088 91.9537C469.87 91.9239 468.66 92.1542 467.538 92.6292C466.417 93.1042 465.41 93.813 464.585 94.708C462.654 96.8721 462.142 99.2722 462.142 109.227C462.142 119.182 462.654 121.621 464.585 123.825C465.42 124.701 466.431 125.393 467.551 125.854C468.671 126.315 469.876 126.535 471.088 126.5C472.421 126.548 473.75 126.313 474.986 125.811C476.222 125.309 477.338 124.552 478.26 123.589C479.887 121.674 480.719 119.21 480.585 116.703V114.736H471.088V106.237H490.792V113.791C490.713 121.228 489.412 125.91 485.747 129.491Z" fill="#5E3814"/>
<path d="M531.107 134.921L528.072 125.91H509.668L506.555 135.039H495.994L514.831 83.3761H522.713L541.589 135.039L531.107 134.921ZM519.048 98.3672L512.506 117.136H525.353L519.048 98.3672Z" fill="#5E3814"/>
<path d="M576.978 134.921L566.85 114.342H559.599V134.921H549.51V83.258H569.805C571.96 83.1179 574.121 83.4212 576.153 84.1492C578.185 84.8771 580.046 86.0142 581.62 87.4899C583.194 88.9656 584.448 90.7484 585.303 92.7278C586.159 94.7072 586.598 96.841 586.593 98.9968C586.676 101.971 585.802 104.894 584.1 107.337C582.398 109.78 579.957 111.614 577.135 112.571L588.682 134.842L576.978 134.921ZM569.096 92.2685H559.599V105.922H569.136C570.077 105.993 571.023 105.87 571.915 105.559C572.806 105.248 573.624 104.757 574.316 104.116C575.009 103.475 575.561 102.699 575.939 101.835C576.317 100.971 576.512 100.038 576.512 99.0951C576.512 98.1524 576.317 97.2197 575.939 96.3557C575.561 95.4917 575.009 94.7149 574.316 94.074C573.624 93.4331 572.806 92.9419 571.915 92.6312C571.023 92.3205 570.077 92.197 569.136 92.2685H569.096Z" fill="#5E3814"/>
<path d="M392.98 203.03V165.257L379.266 195.161H374.655L360.744 165.257V203.03H355.424V153.059H360.744L377.059 188.472L392.823 153.059H398.143V203.03H392.98Z" fill="#997534"/>
<path d="M443.383 203.03L439.443 191.737H417.571L413.63 203.03H407.916L426.32 153.059H430.852L449.255 203.03H443.383ZM428.566 160.732L419.147 187.094H437.827L428.566 160.732Z" fill="#997534"/>
<path d="M487.324 203.03L475.935 180.996H464.112V203.03H458.792V153.059H477.984C479.883 152.903 481.794 153.15 483.591 153.783C485.389 154.416 487.031 155.421 488.412 156.732C489.793 158.044 490.88 159.632 491.603 161.393C492.325 163.154 492.667 165.047 492.605 166.949C492.762 170.13 491.74 173.256 489.733 175.732C487.726 178.207 484.876 179.857 481.728 180.366L493.55 203.03H487.324ZM477.275 157.86H463.915V176.156H477.275C478.528 176.238 479.786 176.063 480.969 175.64C482.152 175.217 483.235 174.557 484.152 173.699C485.07 172.842 485.801 171.806 486.3 170.655C486.8 169.504 487.058 168.262 487.058 167.008C487.058 165.753 486.8 164.512 486.3 163.361C485.801 162.21 485.07 161.174 484.152 160.316C483.235 159.459 482.152 158.798 480.969 158.376C479.786 157.953 478.528 157.778 477.275 157.86Z" fill="#997534"/>
<path d="M506.122 203.03V153.059H511.481V203.03H506.122Z" fill="#997534"/>
<path d="M556.525 203.03L552.584 191.737H530.712L526.772 203.03H520.979L539.382 153.059H543.835L562.2 203.03H556.525ZM541.707 160.732L532.289 187.094H551.008L541.707 160.732Z" fill="#997534"/>
<path d="M583.638 203.03V153.059H588.958V198.269H614.77V203.03H583.638Z" fill="#997534"/>
<path d="M638.415 203.463C636.132 203.595 633.846 203.251 631.702 202.454C629.558 201.657 627.604 200.424 625.963 198.834C624.321 197.243 623.029 195.329 622.167 193.214C621.306 191.098 620.894 188.827 620.958 186.544V153.059H626.317V186.111C626.223 187.758 626.467 189.407 627.033 190.956C627.6 192.506 628.477 193.924 629.611 195.123C630.746 196.322 632.114 197.277 633.631 197.93C635.148 198.583 636.783 198.92 638.435 198.92C640.087 198.92 641.722 198.583 643.239 197.93C644.757 197.277 646.124 196.322 647.259 195.123C648.393 193.924 649.271 192.506 649.837 190.956C650.404 189.407 650.647 187.758 650.553 186.111V153.059H655.913V186.544C655.971 188.828 655.554 191.101 654.688 193.216C653.822 195.332 652.526 197.245 650.881 198.836C649.237 200.426 647.28 201.658 645.134 202.454C642.989 203.251 640.701 203.594 638.415 203.463Z" fill="#997534"/>
<path d="M671.124 203.03V153.059H676.445V203.03H671.124Z" fill="#997534"/>
<path d="M705.41 203.463C702.201 203.691 698.981 203.206 695.983 202.043C692.985 200.879 690.282 199.066 688.07 196.734L691.735 193.075C693.449 194.97 695.568 196.456 697.935 197.423C700.302 198.39 702.857 198.814 705.41 198.662C712.74 198.662 717.232 195.239 717.232 189.416C717.301 188.262 717.123 187.107 716.708 186.028C716.293 184.949 715.652 183.971 714.828 183.16C712.965 181.679 710.667 180.85 708.286 180.799L702.454 179.855C699.062 179.467 695.857 178.1 693.232 175.92C691.924 174.755 690.892 173.313 690.21 171.7C689.529 170.088 689.215 168.344 689.292 166.595C689.292 158.096 695.4 152.469 705.331 152.469C708.059 152.322 710.789 152.734 713.351 153.682C715.913 154.629 718.253 156.091 720.227 157.978L716.759 161.401C713.657 158.616 709.576 157.173 705.41 157.388C698.75 157.388 694.888 161.322 694.888 166.634C694.804 167.705 694.962 168.78 695.351 169.782C695.74 170.783 696.349 171.684 697.134 172.418C699.101 173.9 701.426 174.836 703.873 175.133L709.351 175.999C712.688 176.194 715.882 177.417 718.493 179.501C719.894 180.734 720.999 182.264 721.729 183.98C722.459 185.696 722.794 187.554 722.71 189.416C722.513 198.072 715.616 203.463 705.41 203.463Z" fill="#997534"/>
<path d="M764.286 203.03L760.345 191.737H738.473L734.532 203.03H728.818L747.261 153.059H751.754L770.118 203.03H764.286ZM749.468 160.732L740.05 187.094H758.729L749.468 160.732Z" fill="#997534"/>
</g>
<defs>
<clipPath id="clip0_1_8">
<rect width="770" height="294" fill="white"/>
</clipPath>
</defs>
</svg>
