<svg width="12" height="24" viewBox="0 0 12 24" fill="none" xmlns="http://www.w3.org/2000/svg">
<g clip-path="url(#clip0_341_9645)">
<path d="M12.462 0.17297V3.98097H10.197C9.89675 3.9426 9.59178 3.96926 9.30277 4.05916C9.01376 4.14905 8.74747 4.30007 8.52198 4.50197L8.52398 4.49997C8.19983 4.9547 8.04682 5.50936 8.09198 6.06597V6.05797V8.78397H12.321L11.761 13.054H8.09798V24H3.68098V13.053H0.000976562V8.78397H3.68098V5.63897C3.63314 4.87937 3.74176 4.11803 4.00012 3.40212C4.25849 2.68621 4.66108 2.03096 5.18298 1.47697L5.17998 1.47997C5.71266 0.975226 6.34232 0.583954 7.03077 0.329888C7.71922 0.0758233 8.45211 -0.0357386 9.18498 0.00197024H9.17198C10.3103 -0.0168063 11.4484 0.0450149 12.578 0.18697L12.461 0.17497L12.462 0.17297Z" fill="white"/>
</g>
<defs>
<clipPath id="clip0_341_9645">
<rect width="12" height="24" fill="white"/>
</clipPath>
</defs>
</svg>
